<?xml version="1.0" encoding="UTF-8" standalone="no"?>
<!-- Created with Inkscape (http://www.inkscape.org/) -->

<svg
   xmlns:dc="http://purl.org/dc/elements/1.1/"
   xmlns:cc="http://creativecommons.org/ns#"
   xmlns:rdf="http://www.w3.org/1999/02/22-rdf-syntax-ns#"
   xmlns:svg="http://www.w3.org/2000/svg"
   xmlns="http://www.w3.org/2000/svg"
   xmlns:sodipodi="http://sodipodi.sourceforge.net/DTD/sodipodi-0.dtd"
   xmlns:inkscape="http://www.inkscape.org/namespaces/inkscape"
   width="64"
   height="50.026997"
   id="svg8410"
   version="1.1"
   inkscape:version="0.91+devel r"
   viewBox="0 0 64 50.026997"
   sodipodi:docname="title.svg"
   inkscape:export-filename="/home/doctormo/Desktop/icon.png"
   inkscape:export-xdpi="92.449997"
   inkscape:export-ydpi="92.449997">
  <defs
     id="defs8412" />
  <sodipodi:namedview
     id="base"
     pagecolor="#ffffff"
     bordercolor="#666666"
     borderopacity="1.0"
     inkscape:pageopacity="0.0"
     inkscape:pageshadow="2"
     inkscape:zoom="1.979899"
     inkscape:cx="12.402416"
     inkscape:cy="-101.18982"
     inkscape:document-units="px"
     inkscape:current-layer="layer1"
     showgrid="false"
     fit-margin-top="0"
     fit-margin-left="0"
     fit-margin-right="0"
     fit-margin-bottom="0"
     inkscape:window-width="1855"
     inkscape:window-height="1056"
     inkscape:window-x="65"
     inkscape:window-y="24"
     inkscape:window-maximized="1" />
  <metadata
     id="metadata8415">
    <rdf:RDF>
      <cc:Work
         rdf:about="">
        <dc:format>image/svg+xml</dc:format>
        <dc:type
           rdf:resource="http://purl.org/dc/dcmitype/StillImage" />
        <dc:title></dc:title>
      </cc:Work>
    </rdf:RDF>
  </metadata>
  <g
     inkscape:label="Layer 1"
     inkscape:groupmode="layer"
     id="layer1"
     transform="translate(-166.77214,-396.29421)">
    <g
       id="g4647"
       transform="matrix(1.0472674,0,0,1.0786867,384.40532,-174.07911)"
       inkscape:export-filename="/home/doctormo/Desktop/logo.png"
       inkscape:export-xdpi="91.98"
       inkscape:export-ydpi="91.98">
      <ellipse
         ry="11"
         rx="33"
         cy="222.8009"
         cx="161"
         style="color:#000000;clip-rule:nonzero;display:inline;overflow:visible;visibility:visible;color-interpolation:sRGB;color-interpolation-filters:linearRGB;fill:#a38257;fill-opacity:1;fill-rule:nonzero;stroke:none;stroke-width:1.80094516;marker:none;color-rendering:auto;image-rendering:auto;shape-rendering:auto;text-rendering:auto;enable-background:accumulate"
         id="path3607"
         transform="matrix(0.5067695,0,0,0.2933095,-255.1798,506.5681)" />
      <path
         sodipodi:nodetypes="ccccccccccccccccc"
         inkscape:connector-curvature="0"
         id="path3609"
         d="m -168.8454,545.4386 c -4.7782,7.8025 -3.2789,15.8516 -3.4696,24.2408 -0.8844,-5.59 -2.1481,-11.73 -5.3972,-16.3263 l 1.4963,-6.9471 -1.2268,-0.4754 -2.1609,4.904 c -1.3972,-1.4326 -1.0977,-3.6511 -2.3151,-4.8554 l -2.9394,1.1831 c -0.099,1.4653 1.3341,3.0531 1.4915,4.9511 l -7.6318,-2.784 -1.8394,0.4762 9.9792,5.6093 c 1.0887,5.0796 -0.8073,10.4759 -0.3289,15.4182 4.518,3.1318 7.7189,1.4444 10.7152,-0.9922 3.291,1.6559 6.5819,2.9499 9.873,0.069 -3.7003,-6.2856 -6.9139,-16.2351 -3.9325,-23.5482 z"
         style="color:#000000;clip-rule:nonzero;display:inline;overflow:visible;visibility:visible;color-interpolation:sRGB;color-interpolation-filters:linearRGB;fill:#b68f61;fill-opacity:1;fill-rule:nonzero;stroke:#816647;stroke-width:1.66775012;stroke-linecap:butt;stroke-linejoin:miter;stroke-miterlimit:4;stroke-dasharray:none;stroke-dashoffset:0;stroke-opacity:1;marker:none;color-rendering:auto;image-rendering:auto;shape-rendering:auto;text-rendering:auto;enable-background:accumulate" />
      <path
         sodipodi:nodetypes="cccccccccccccccccccc"
         inkscape:connector-curvature="0"
         id="path3611"
         d="m -176.7608,546.3384 c -0.9197,2.3055 -0.9741,4.7153 -2.6259,6.9719 0.011,0.029 0.026,0.066 0.038,0.095 v 0 0 c 2.0635,5.1157 7.4218,17.3622 -3.3831,16.6201 1.8527,1.439 5.2973,3.7175 10.2576,-0.3817 -1.1251,-3.5793 -1.8008,-11.8312 -5.4377,-16.4029 l 1.5598,-6.6305 z m -4.2238,2.3795 -1.4307,0.3395 2.3844,2.9914 0.6129,-0.6121 z m -10.4909,1.0193 -0.6126,0.4762 10.1533,4.4151 -1.6381,-1.0839 z"
         style="color:#000000;clip-rule:nonzero;display:inline;overflow:visible;visibility:visible;color-interpolation:sRGB;color-interpolation-filters:linearRGB;fill:#a38257;fill-opacity:1;fill-rule:nonzero;stroke:none;stroke-width:1.80365646;marker:none;color-rendering:auto;image-rendering:auto;shape-rendering:auto;text-rendering:auto;enable-background:accumulate" />
      <path
         sodipodi:nodetypes="cccc"
         inkscape:connector-curvature="0"
         id="path3613"
         d="m -166.3004,563.4457 c 2.0006,-3.5466 6.0686,-8.3478 7.1712,-12.6975 l -2.5446,-0.4617 c -0.7107,5.7603 -2.3314,5.6424 -7.1712,9.4654"
         style="color:#000000;clip-rule:nonzero;display:inline;overflow:visible;visibility:visible;color-interpolation:sRGB;color-interpolation-filters:linearRGB;fill:#b68f61;fill-opacity:1;fill-rule:nonzero;stroke:#816647;stroke-width:1.66775012;stroke-linecap:butt;stroke-linejoin:miter;stroke-miterlimit:4;stroke-dasharray:none;stroke-dashoffset:0;stroke-opacity:1;marker:none;color-rendering:auto;image-rendering:auto;shape-rendering:auto;text-rendering:auto;enable-background:accumulate" />
      <path
         sodipodi:nodetypes="cccccc"
         inkscape:connector-curvature="0"
         id="path3615"
         d="m -203.1734,546.093 c -4.9246,-1.8843 -6.5329,-9.7143 2.9272,-10.2757 -0.033,-7.1341 14.4244,-8.0842 17.107,-3.7413 9.8606,-1.8571 12.3403,5.6257 5.1716,10.6984 3.2155,3.7958 -3.5619,8.4844 -13.4803,6.81 -4.1114,4.8174 -14.7801,4.1582 -11.7255,-3.4914 z"
         style="color:#000000;clip-rule:nonzero;display:inline;overflow:visible;visibility:visible;color-interpolation:sRGB;color-interpolation-filters:linearRGB;fill:#9ccc44;fill-opacity:1;fill-rule:nonzero;stroke:#70a12c;stroke-width:1.38906276;stroke-linecap:butt;stroke-linejoin:miter;stroke-miterlimit:4;stroke-dasharray:none;stroke-dashoffset:0;stroke-opacity:1;marker:none;color-rendering:auto;image-rendering:auto;shape-rendering:auto;text-rendering:auto;enable-background:accumulate" />
      <path
         sodipodi:nodetypes="cccccccc"
         inkscape:connector-curvature="0"
         id="path3617"
         d="m -203.3001,546.382 c 2.8181,4.63 10.715,3.6247 9.2282,-2.4641 0.4924,4.742 10.7703,2.6297 9.6589,-3.9597 5.0178,-0.4487 1.8803,-7.9789 -4.2032,-5.7194 3.2112,-2.8341 11.3913,-3.1003 15.1806,0.6061 1.4233,6.9967 0.4805,10.0938 -4.2389,10.9603 -1.3344,4.3799 -9.4394,4.7522 -13.6798,3.6534 -5.1027,4.2246 -13.6378,4.9439 -11.9458,-3.0766 z"
         style="color:#000000;clip-rule:nonzero;display:inline;overflow:visible;visibility:visible;color-interpolation:sRGB;color-interpolation-filters:linearRGB;fill:#70a12c;fill-opacity:1;fill-rule:nonzero;stroke:none;stroke-width:1.84284616;marker:none;color-rendering:auto;image-rendering:auto;shape-rendering:auto;text-rendering:auto;enable-background:accumulate" />
      <path
         sodipodi:nodetypes="cccccc"
         inkscape:connector-curvature="0"
         id="path3619"
         d="m -177.6055,537.7973 c -4.4767,-2.7694 2.9164,-10.1822 8.4237,-6.5917 6.9356,-3.7871 17.4983,2.7053 16.0396,7.0167 9.069,4.2865 6.6639,11.7937 -2.1233,11.6877 -2.1813,3.6475 -11.7303,1.2776 -14.2214,-3.5604 -7.8283,3.9699 -15.1858,-4.7165 -8.1186,-8.5523 z"
         style="color:#000000;clip-rule:nonzero;display:inline;overflow:visible;visibility:visible;color-interpolation:sRGB;color-interpolation-filters:linearRGB;fill:#9ccc44;fill-opacity:1;fill-rule:nonzero;stroke:#70a12c;stroke-width:1.38906276;stroke-linecap:butt;stroke-linejoin:miter;stroke-miterlimit:4;stroke-dasharray:none;stroke-dashoffset:0;stroke-opacity:1;marker:none;color-rendering:auto;image-rendering:auto;shape-rendering:auto;text-rendering:auto;enable-background:accumulate" />
      <path
         sodipodi:nodetypes="cccc"
         inkscape:connector-curvature="0"
         id="path3625"
         d="m -169.507,558.8302 c -0.854,-5.3416 0.1628,-9.6737 2.2369,-14.7556 0.2688,4.6148 -1.2402,7.9352 -0.2972,13.7058 z"
         style="color:#000000;clip-rule:nonzero;display:inline;overflow:visible;visibility:visible;color-interpolation:sRGB;color-interpolation-filters:linearRGB;fill:#a38257;fill-opacity:1;fill-rule:nonzero;stroke:none;stroke-width:1.80365646;marker:none;color-rendering:auto;image-rendering:auto;shape-rendering:auto;text-rendering:auto;enable-background:accumulate" />
      <path
         sodipodi:nodetypes="ccccccc"
         inkscape:connector-curvature="0"
         id="path3627"
         d="m -160.9118,552.9197 c -1.2748,3.0765 -4.3088,5.8192 -7.7323,9.5882 0.3441,2.9127 2.2443,5.4478 -2.6221,6.7737 3.0662,1.2044 2.0934,2.3653 8.4042,0.5026 -1.3942,-1.8775 -2.9408,-4.698 -3.825,-7.0844 2.6053,-4.0738 5.2172,-8.1547 7.3216,-11.729 z"
         style="color:#000000;clip-rule:nonzero;display:inline;overflow:visible;visibility:visible;color-interpolation:sRGB;color-interpolation-filters:linearRGB;fill:#a38257;fill-opacity:1;fill-rule:nonzero;stroke:none;stroke-width:1.80365646;marker:none;color-rendering:auto;image-rendering:auto;shape-rendering:auto;text-rendering:auto;enable-background:accumulate" />
      <path
         sodipodi:nodetypes="cccccc"
         inkscape:connector-curvature="0"
         id="path4469"
         d="m -176.4378,538.232 c 0.024,3.4319 4.7405,5.1525 8.7612,0.9583 3.5848,2.0639 10.3468,2.384 12.5944,-4.3807 2.4851,3.1982 6.6317,5.6844 6.8447,9.8564 l -24.6411,2.8748 c -5.2503,-2.2901 -5.5891,-5.5626 -3.5592,-9.3088 z"
         style="color:#000000;clip-rule:nonzero;display:inline;overflow:visible;visibility:visible;color-interpolation:sRGB;color-interpolation-filters:linearRGB;fill:#70a12c;fill-opacity:1;fill-rule:nonzero;stroke:none;stroke-width:1.84284616;marker:none;color-rendering:auto;image-rendering:auto;shape-rendering:auto;text-rendering:auto;enable-background:accumulate" />
      <path
         sodipodi:nodetypes="cccccc"
         inkscape:connector-curvature="0"
         id="path3631"
         d="m -167.5267,549.8985 c -3.4934,-0.1503 -1.5899,-6.0339 2.767,-5.7552 2.8072,-3.8994 11.0363,-3.5663 11.5796,-0.9481 6.6501,-0.3728 7.6743,4.1479 2.5361,6.5797 -0.091,2.483 -6.4014,3.9721 -9.4087,2.2019 -3.2667,4.2455 -10.3418,1.8833 -7.474,-2.0783 z"
         style="color:#000000;clip-rule:nonzero;display:inline;overflow:visible;visibility:visible;color-interpolation:sRGB;color-interpolation-filters:linearRGB;fill:#9ccc44;fill-opacity:1;fill-rule:nonzero;stroke:#70a12c;stroke-width:1.38906276;stroke-linecap:butt;stroke-linejoin:miter;stroke-miterlimit:4;stroke-dasharray:none;stroke-dashoffset:0;stroke-opacity:1;marker:none;color-rendering:auto;image-rendering:auto;shape-rendering:auto;text-rendering:auto;enable-background:accumulate" />
      <circle
         r="9.5"
         cy="265.3573"
         cx="-294.5"
         transform="matrix(0.3413273,0,0,0.3406399,-86.9763,453.7094)"
         id="path3633"
         style="color:#000000;clip-rule:nonzero;display:inline;overflow:visible;visibility:visible;color-interpolation:sRGB;color-interpolation-filters:linearRGB;fill:#de0c0c;fill-opacity:1;fill-rule:nonzero;stroke:#a60707;stroke-width:2.71579719px;stroke-linecap:butt;stroke-linejoin:miter;stroke-miterlimit:4;stroke-dasharray:none;stroke-dashoffset:0;stroke-opacity:1;marker:none;color-rendering:auto;image-rendering:auto;shape-rendering:auto;text-rendering:auto;enable-background:accumulate" />
      <path
         inkscape:connector-curvature="0"
         id="path3637"
         d="m -159.4674,533.225 c -0.7197,-0.2588 -1.5121,0.1135 -1.7703,0.8317 -0.1241,0.3451 -0.099,0.7064 0.036,1.0179 -0.8376,0.1716 -1.5699,0.7534 -1.88,1.6157 -0.4734,1.3168 0.2132,2.7683 1.5326,3.2427 1.3193,0.4744 2.7718,-0.2079 3.2452,-1.5246 0.3708,-1.031 0.025,-2.1385 -0.7738,-2.801 0.1955,-0.1547 0.3549,-0.3615 0.4456,-0.6137 0.2583,-0.7182 -0.1156,-1.5099 -0.8353,-1.7687 z"
         style="color:#000000;clip-rule:nonzero;display:inline;overflow:visible;visibility:visible;color-interpolation:sRGB;color-interpolation-filters:linearRGB;fill:#70a12c;fill-opacity:1;fill-rule:nonzero;stroke:none;stroke-width:1.84284616;marker:none;color-rendering:auto;image-rendering:auto;shape-rendering:auto;text-rendering:auto;enable-background:accumulate" />
      <circle
         r="9.5"
         cy="265.3573"
         cx="-294.5"
         id="path3639"
         style="color:#000000;clip-rule:nonzero;display:inline;overflow:visible;visibility:visible;color-interpolation:sRGB;color-interpolation-filters:linearRGB;fill:#336699;fill-opacity:1;fill-rule:nonzero;stroke:none;stroke-width:9.49999905;marker:none;color-rendering:auto;image-rendering:auto;shape-rendering:auto;text-rendering:auto;enable-background:accumulate"
         transform="matrix(0.1653427,0,0,0.1650098,-103.7943,502.2774)" />
      <circle
         r="9.5"
         cy="265.3573"
         cx="-294.5"
         id="path3641"
         style="color:#000000;clip-rule:nonzero;display:inline;overflow:visible;visibility:visible;color-interpolation:sRGB;color-interpolation-filters:linearRGB;fill:#de0c0c;fill-opacity:1;fill-rule:nonzero;stroke:#a60707;stroke-width:3.67412519px;stroke-linecap:butt;stroke-linejoin:miter;stroke-miterlimit:4;stroke-dasharray:none;stroke-dashoffset:0;stroke-opacity:1;marker:none;color-rendering:auto;image-rendering:auto;shape-rendering:auto;text-rendering:auto;enable-background:accumulate"
         transform="matrix(0.2522983,0,0,0.2517903,-125.6951,475.1837)" />
      <path
         sodipodi:nodetypes="ccccc"
         inkscape:connector-curvature="0"
         id="path3649"
         d="m -168.6188,545.8052 c -6.6276,2.3324 -11.7207,-3.5924 -7.1289,-7.4992 -3.4962,-3.7805 2.2343,-8.3279 6.5509,-7.1146 -1.5904,-2.8 -13.1066,1.3677 -8.6703,6.5378 -9.4657,8.0148 6.2418,11.4907 9.2483,8.076 z"
         style="color:#000000;clip-rule:nonzero;display:inline;overflow:visible;visibility:visible;color-interpolation:sRGB;color-interpolation-filters:linearRGB;fill:#70a12c;fill-opacity:1;fill-rule:nonzero;stroke:none;stroke-width:1.84284616;marker:none;color-rendering:auto;image-rendering:auto;shape-rendering:auto;text-rendering:auto;enable-background:accumulate" />
      <circle
         r="9.5"
         cy="265.3573"
         cx="-294.5"
         id="path3663"
         style="color:#000000;clip-rule:nonzero;display:inline;overflow:visible;visibility:visible;color-interpolation:sRGB;color-interpolation-filters:linearRGB;fill:#336699;fill-opacity:1;fill-rule:nonzero;stroke:none;stroke-width:9.49999905;marker:none;color-rendering:auto;image-rendering:auto;shape-rendering:auto;text-rendering:auto;enable-background:accumulate"
         transform="matrix(0.151999,0,0,0.1516929,-117.7485,508.7458)" />
    </g>
  </g>
</svg>
