<?xml version="1.0" encoding="UTF-8" standalone="no"?>
<svg
   xmlns:dc="http://purl.org/dc/elements/1.1/"
   xmlns:cc="http://creativecommons.org/ns#"
   xmlns:rdf="http://www.w3.org/1999/02/22-rdf-syntax-ns#"
   xmlns:svg="http://www.w3.org/2000/svg"
   xmlns="http://www.w3.org/2000/svg"
   xmlns:sodipodi="http://sodipodi.sourceforge.net/DTD/sodipodi-0.dtd"
   xmlns:inkscape="http://www.inkscape.org/namespaces/inkscape"
   id="svg2"
   viewBox="0 0 190 190"
   version="1.1"
   inkscape:version="0.48+devel r"
   sodipodi:docname="British_Crown_by_Rones.svg"
   style="background-color: #d00000;"
   width="190"
   height="190">
  <defs
     id="defs11" />
  <sodipodi:namedview
     pagecolor="#d00000"
     bordercolor="#666666"
     borderopacity="1"
     objecttolerance="10"
     gridtolerance="10"
     guidetolerance="10"
     inkscape:pageopacity="0"
     inkscape:pageshadow="2"
     inkscape:window-width="1855"
     inkscape:window-height="1056"
     id="namedview9"
     showgrid="false"
     borderlayer="true"
     inkscape:showpageshadow="false"
     inkscape:zoom="0.52561247"
     inkscape:cx="280.06"
     inkscape:cy="224.5"
     inkscape:window-x="65"
     inkscape:window-y="24"
     inkscape:window-maximized="1"
     inkscape:current-layer="svg2" />
  <path
     id="path2902"
     d="m 89.768242,22.047653 0,1.557757 3.915886,6.617105 0,2.543897 -6.288284,-4.1017 -1.186222,0 0,10.775604 1.186222,0 6.288284,-3.61574 0,6.145597 c -4.339053,0.635414 -7.674451,4.373719 -7.674451,8.889576 0,4.961114 4.013801,8.989275 8.975097,8.989275 4.961297,0 8.989276,-4.02807 8.989276,-8.989275 0,-4.370701 -3.12375,-8.00007 -7.260112,-8.803598 l 0,-5.8026 6.259932,3.601471 1.11474,0 0,-10.203941 -1.11474,0 -6.259932,4.073071 0,-3.501409 3.915882,-6.617105 0,-1.557756 -10.861578,0 z m 3.915886,22.166317 0,5.359448 c -1.711831,-0.298714 -3.273475,-1.029175 -4.587475,-2.057984 0.961124,-1.68805 2.619357,-2.919091 4.587475,-3.301373 z m 3.02981,0.100041 c 1.97283,0.521218 3.593702,1.907019 4.430382,3.730073 -1.299044,0.848164 -2.812715,1.395588 -4.430382,1.586386 l 0,-5.316459 z m -18.550211,8.360446 c -2.255139,0 -4.087385,1.832246 -4.087385,4.087385 0,2.255139 1.832246,4.073071 4.087385,4.073071 2.255139,0 4.087385,-1.817932 4.087385,-4.073071 0,-2.255139 -1.832246,-4.087385 -4.087385,-4.087385 z m 33.656723,0 c -2.25514,0 -4.08738,1.832246 -4.08738,4.087385 0,2.255139 1.83224,4.073071 4.08738,4.073071 2.25514,0 4.08739,-1.817932 4.08739,-4.073071 0,-2.255139 -1.83225,-4.087385 -4.08739,-4.087385 z m -18.462398,0.957191 c 2.373313,0 4.553953,0.801745 6.302462,2.143734 -1.215628,1.155581 -2.863707,1.857902 -4.673453,1.857902 -2.413329,0 -4.529897,-1.259121 -5.7308,-3.158411 1.25688,-0.541067 2.647025,-0.843225 4.1017,-0.843225 z m -25.967643,1.815051 c -2.076278,0 -3.759251,1.683888 -3.759251,3.758793 0,2.074723 1.683934,3.758702 3.758702,3.758702 2.074722,0 3.758702,-1.683934 3.758702,-3.758702 0,-2.074722 -1.683934,-3.758702 -3.758702,-3.758702 z m 55.208851,0 c -2.07472,0 -3.7587,1.683934 -3.7587,3.758702 0,2.074722 1.68393,3.758702 3.7587,3.758702 2.07472,0 3.7587,-1.683934 3.7587,-3.758702 0,-2.074723 -1.68393,-3.758702 -3.7587,-3.758702 z m -65.014002,4.659276 c -1.849212,0 -3.344223,1.495011 -3.344223,3.344224 0,1.849213 1.495011,3.358538 3.344223,3.358538 1.849213,0 3.344224,-1.509279 3.344224,-3.358538 0,-1.849213 -1.495011,-3.344224 -3.344224,-3.344224 z m 74.814582,0 c -1.84922,0 -3.34423,1.495011 -3.34423,3.344224 0,1.849213 1.49501,3.358538 3.34423,3.358538 1.84921,0 3.34422,-1.509279 3.34422,-3.358538 0,-1.849213 -1.49501,-3.344224 -3.34422,-3.344224 z m -48.934289,1.314823 -1.514905,0.228665 C 69.128033,63.580035 57.09843,68.625114 47.53658,73.940201 37.974729,79.255288 30.961119,84.743707 27.871399,88.074437 l 2.915477,2.70108 c 2.486685,-2.68073 9.438373,-8.21822 18.693356,-13.362719 8.865337,-4.927729 19.926772,-9.552705 31.541577,-11.547578 1.700444,3.8091 3.312898,7.324594 4.987639,15.9352 l 3.901572,0 C 87.975784,71.85121 85.940574,67.095438 84.065888,62.821233 l -0.600245,-1.400572 z m 23.052169,0 -0.60025,1.400572 c -1.87478,4.274113 -3.90999,9.029977 -5.84513,18.979187 l 3.90157,0 c 1.67383,-8.610148 3.2882,-12.125642 4.98489,-15.935199 11.61435,1.994644 22.67624,6.619848 31.54158,11.547577 9.25498,5.144502 16.20685,10.681852 18.69335,13.362722 l 2.91548,-2.70108 C 159.01953,84.743797 152.00588,79.255425 142.44403,73.940338 132.88218,68.625251 120.85258,63.579989 108.02997,61.6496 l -1.51491,-0.228665 z m -11.53386,0.271425 c -1.894306,0 -3.429974,1.535668 -3.429974,3.429974 0,1.894305 1.535668,3.429973 3.429974,3.429973 1.894306,0 3.429973,-1.535668 3.429973,-3.429973 0,-1.894306 -1.535667,-3.429974 -3.429973,-3.429974 z m -46.062256,2.743979 c -1.713889,0 -3.101245,1.387356 -3.101245,3.101245 0,1.713889 1.387356,3.101245 3.101245,3.101245 1.713889,0 3.115559,-1.387356 3.115559,-3.101245 0,-1.713889 -1.401624,-3.101245 -3.115559,-3.101245 z m 92.138226,0 c -1.71388,0 -3.11555,1.387356 -3.11555,3.101245 0,1.713889 1.40162,3.101245 3.11555,3.101245 1.71389,0 3.10125,-1.387356 3.10125,-3.101245 0,-1.713889 -1.38736,-3.101245 -3.10125,-3.101245 z M 40.104285,69.981326 c -1.623704,0 -2.929746,1.320357 -2.929746,2.94406 0,1.623704 1.306042,2.944061 2.929746,2.944061 1.623704,0 2.944061,-1.320357 2.944061,-2.944061 0,-1.623703 -1.320357,-2.94406 -2.944061,-2.94406 z m 109.772855,0 c -1.6237,0 -2.94406,1.320357 -2.94406,2.94406 0,1.623704 1.32036,2.944061 2.94406,2.944061 1.62371,0 2.92975,-1.320357 2.92975,-2.944061 0,-1.623703 -1.30604,-2.94406 -2.92975,-2.94406 z m -54.89328,0.45733 c -1.623704,0 -2.929746,1.320356 -2.929746,2.94406 0,1.623704 1.306042,2.929746 2.929746,2.929746 1.623703,0 2.94406,-1.306042 2.94406,-2.929746 0,-1.623704 -1.320357,-2.94406 -2.94406,-2.94406 z m -62.709061,5.430791 c -1.443287,0 -2.615378,1.172045 -2.615378,2.615378 0,1.443287 1.172045,2.615377 2.615378,2.615377 1.443287,0 2.615378,-1.172045 2.615378,-2.615377 0,-1.443287 -1.172045,-2.615378 -2.615378,-2.615378 z m 125.436401,0 c -1.44328,0 -2.61537,1.172045 -2.61537,2.615378 0,1.443287 1.17204,2.615377 2.61537,2.615377 1.44329,0 2.61538,-1.172045 2.61538,-2.615377 0,-1.443287 -1.17204,-2.615378 -2.61538,-2.615378 z M 52.525363,76.526859 c -3.778185,5.862968 -3.621915,13.409368 -1.314824,21.880488 -17.548659,-7.46865 -23.589528,15.038833 -10.28992,21.880493 -1.016324,-5.46235 -0.04267,-11.29056 5.888121,-11.91893 3.171948,-0.33621 6.897905,0.561 7.345631,6.37426 0.315187,4.08931 -3.150545,13.85298 -14.048714,13.71989 -6.810098,-0.0845 -14.081642,-2.63509 -17.307189,-13.54839 -1.20232,-4.06804 -1.18174,-3.86956 2.815414,-2.21522 1.564388,0.64749 3.546455,1.99108 6.816958,4.81614 -0.231455,-4.56982 -2.441684,-16.1666 -4.73062,-19.593833 -3.056335,2.160743 -3.382594,4.707293 -9.146596,6.359623 2.04806,-3.96399 3.947946,-8.009213 6.859947,-12.405073 -6.066937,0.45263 -9.716429,1.90725 -13.719894,2.77257 0.938807,3.89343 1.892431,7.737103 3.258475,10.775603 -3.003742,5.82318 -0.490166,8.44094 2.615377,11.27592 1.264655,1.15453 6.974738,17.95386 4.087386,23.681 -1.522222,3.01957 -0.632213,6.2485 1.472053,7.67445 2.354059,1.59553 4.46889,3.64556 6.38844,5.75961 2.458011,2.70703 1.886257,2.98669 4.902118,1.32909 10.616454,-5.83507 33.763743,-9.84676 60.582477,-9.84676 26.818277,0 49.963277,4.01174 60.582467,9.84676 3.01577,1.65755 2.44402,1.37794 4.90212,-1.32909 1.91946,-2.11396 4.03429,-4.16399 6.38844,-5.75961 2.10422,-1.42623 2.99427,-4.65516 1.47205,-7.67445 -2.8873,-5.72714 2.82273,-22.5267 4.08739,-23.681 3.10554,-2.83512 5.61921,-5.45274 2.61537,-11.27592 1.36605,-3.03896 2.31967,-6.882363 3.25848,-10.775603 -4.00328,-0.86532 -7.65296,-2.31995 -13.71989,-2.77257 2.912,4.39599 4.81202,8.440943 6.85994,12.405073 -5.76418,-1.65251 -6.09026,-4.19902 -9.14659,-6.359623 -2.28885,3.427233 -4.49903,15.023743 -4.73062,19.593833 3.27059,-2.82515 5.25289,-4.16879 6.81695,-4.81614 3.99716,-1.65439 4.01774,-1.85287 2.81542,2.21522 -3.22541,10.91326 -10.49709,13.46379 -17.30719,13.54839 -10.89816,0.13328 -14.36381,-9.63045 -14.04871,-13.71989 0.44805,-5.81312 4.17396,-6.7104 7.34564,-6.37426 5.93064,0.62864 6.90429,6.45658 5.88811,11.91893 13.29961,-6.84166 7.25874,-29.349143 -10.28991,-21.880493 2.30709,-8.47112 2.46336,-16.01752 -1.31483,-21.880488 -4.56776,4.590676 -9.92085,8.478438 -8.16059,20.894488 -3.3043,-2.36998 -6.18035,-4.75578 -9.1466,-4.07308 -3.99916,0.92066 -7.63832,2.5445 -8.33209,8.817783 -0.48422,4.38044 2.03503,8.55756 5.3878,11.26175 0.44699,-4.29854 1.24193,-8.04581 6.04545,-8.1606 5.51539,-0.13183 6.53981,4.42344 6.37426,8.00328 -0.22949,4.95699 -6.93541,10.77377 -15.52086,10.1326 -8.60511,-0.64246 -16.063248,-7.97721 -15.935195,-16.86404 2.724175,0.65357 6.151545,3.48535 7.731615,4.84495 0.30428,0.26183 1.36714,0.24225 1.67209,0.25725 l 0,-18.579023 c -0.39961,0.009 -1.21961,-0.10534 -1.70072,0.18579 -2.4683,1.49373 -5.40152,6.23569 -7.116963,5.81677 1.332753,-5.44679 4.973003,-11.99667 5.058983,-14.22021 l -17.664364,0 c 0.0861,2.22335 3.72646,8.77342 5.058982,14.22021 -1.71549,0.41921 -4.648757,-4.32291 -7.116966,-5.81677 -0.481066,-0.29113 -1.301104,-0.17691 -1.700718,-0.18579 l 0,18.579023 c 0.304961,-0.015 1.367827,0.005 1.672089,-0.25725 1.579983,-1.35946 5.007761,-4.19124 7.731617,-4.84495 0.128355,8.88683 -7.329624,16.22149 -15.935199,16.86404 -8.584995,0.64094 -15.29128,-5.17561 -15.520859,-10.1326 -0.165732,-3.57984 0.858454,-8.13499 6.374263,-8.00328 4.803335,0.11482 5.598174,3.86197 6.045442,8.1606 3.352914,-2.70401 5.872115,-6.88144 5.387803,-11.26175 -0.693495,-6.273193 -4.332834,-7.897173 -8.332092,-8.817783 -2.966287,-0.68288 -5.842388,1.7031 -9.146596,4.07308 1.760445,-12.41559 -3.592737,-16.303812 -8.160591,-20.894488 z m 42.460326,1.672089 c -1.172685,0 -2.11515,0.942465 -2.11515,2.11515 0,1.172685 0.942465,2.129419 2.11515,2.129419 1.172685,0 2.129419,-0.95678 2.129419,-2.129419 0,-1.172685 -0.95678,-2.11515 -2.129419,-2.11515 z m -69.084238,3.873579 c -1.172685,0 -2.129419,0.95678 -2.129419,2.12942 0,1.17269 0.956779,2.11515 2.129419,2.11515 1.172685,0 2.129419,-0.94246 2.129419,-2.11515 0,-1.17259 -0.956734,-2.12932 -2.129328,-2.12932 z m 138.186759,0 c -1.17534,0 -2.13116,0.95674 -2.13116,2.12933 0,1.17269 0.95678,2.11515 2.12942,2.11515 1.17269,0 2.12942,-0.94246 2.12942,-2.11515 0,-1.17259 -0.95582,-2.12933 -2.12658,-2.12933 z M 94.985689,100.56604 c 0.992269,0 1.800736,0.80846 1.800736,1.80073 0,0.99227 -0.808467,1.80074 -1.800736,1.80074 -0.992268,0 -1.786422,-0.80847 -1.786422,-1.80074 0,-0.99227 0.794199,-1.80073 1.786422,-1.80073 z m -78.331447,7.03099 c 0.724365,-0.0149 1.598368,1.16632 2.015087,2.75824 0.444543,1.69807 0.19083,3.22692 -0.557394,3.41571 -0.748192,0.18876 -1.713478,-1.0316 -2.158048,-2.72971 -0.444543,-1.69807 -0.19083,-3.22692 0.557394,-3.41571 0.04676,-0.0118 0.09463,-0.0276 0.142915,-0.0286 z m 156.690328,0 c 0.0483,10e-4 0.0962,0.0168 0.14291,0.0286 0.74819,0.18876 1.00192,1.71759 0.55739,3.4157 -0.44452,1.69807 -1.40981,2.91845 -2.15804,2.72971 -0.74819,-0.18876 -1.00192,-1.71759 -0.5574,-3.4157 0.41677,-1.59197 1.29077,-2.77316 2.01509,-2.75825 z m -78.358881,17.72153 4.216032,6.73143 -4.216032,6.74562 -4.216032,-6.74562 4.216032,-6.73143 z m -17.478688,2.32954 c 1.172685,0 2.129419,0.94247 2.129419,2.11515 0,1.17269 -0.956779,2.12942 -2.129419,2.12942 -1.172685,0 -2.11515,-0.95678 -2.11515,-2.12942 0,-1.17268 0.942465,-2.11515 2.11515,-2.11515 z m 34.985729,0 c 1.17268,0 2.11515,0.94247 2.11515,2.11515 0,1.17269 -0.94247,2.12942 -2.11515,2.12942 -1.17269,0 -2.12942,-0.95678 -2.12942,-2.12942 0,-1.17268 0.95678,-2.11515 2.12942,-2.11515 z m -51.120324,0.44361 c 4.343581,0.0854 7.890768,2.38141 8.30328,5.63065 0.471735,3.7137 -3.335627,7.26102 -8.503591,7.91729 -5.167825,0.65641 -9.732433,-1.83142 -10.20394,-5.54512 -0.471736,-3.7137 3.335626,-7.24685 8.503588,-7.90312 0.645979,-0.082 1.280249,-0.11224 1.900754,-0.10004 z m 67.254914,0 c 0.62051,-0.0122 1.25478,0.018 1.90076,0.10004 5.16782,0.65641 8.9751,4.18951 8.50359,7.90312 -0.47174,3.7137 -5.03612,6.20139 -10.20394,5.54512 -5.16783,-0.6564 -8.9751,-4.20382 -8.50359,-7.91729 0.41275,-3.24951 3.95983,-5.54558 8.30328,-5.63065 z m -88.433856,6.00474 c 1.172686,0 2.129419,0.95678 2.129419,2.12942 0,1.17269 -0.956779,2.11515 -2.129419,2.11515 -1.172685,0 -2.129419,-0.94246 -2.129419,-2.11515 0,-1.17268 0.95678,-2.12942 2.129419,-2.12942 z m 109.617366,0 c 1.17269,0 2.12942,0.95678 2.12942,2.12942 0,1.17269 -0.95678,2.11515 -2.12942,2.11515 -1.17268,0 -2.12942,-0.94246 -2.12942,-2.11515 0,-1.17268 0.95678,-2.12942 2.12942,-2.12942 z m -71.155931,2.3724 c 1.172685,0 2.129419,0.94247 2.129419,2.11515 0,1.17269 -0.95678,2.12942 -2.129419,2.12942 -1.172685,0 -2.11515,-0.95678 -2.11515,-2.12942 0,-1.17268 0.942465,-2.11515 2.11515,-2.11515 z m 32.699081,0 c 1.17268,0 2.11515,0.94247 2.11515,2.11515 0,1.17269 -0.94247,2.12942 -2.11515,2.12942 -1.17269,0 -2.12942,-0.95678 -2.12942,-2.12942 0,-1.17268 0.95678,-2.11515 2.12942,-2.11515 z m -85.575551,2.17232 4.530401,3.68722 -1.314824,5.70245 -4.544715,-3.70154 1.329092,-5.68827 z m 138.456581,0 1.32909,5.68827 -4.54471,3.70153 -1.31482,-5.70244 4.5304,-3.68722 z m -122.482051,4.02907 c 1.172685,0 2.11515,0.95678 2.11515,2.12942 0,1.17269 -0.942465,2.11515 -2.11515,2.11515 -1.172685,0 -2.129419,-0.94246 -2.129419,-2.11515 0,-1.17268 0.95678,-2.12942 2.129419,-2.12942 z m 106.502951,0 c 1.17268,0 2.12942,0.95678 2.12942,2.12942 0,1.17269 -0.95678,2.11515 -2.12942,2.11515 -1.17269,0 -2.11514,-0.94246 -2.11514,-2.11515 0,-1.17268 0.94245,-2.12942 2.11514,-2.12942 z m -53.25147,5.11661 c -33.105648,0 -59.937643,6.77305 -59.937643,10.61874 0,3.51929 26.833367,9.54676 59.937643,9.54676 33.10564,0 59.93763,-6.02761 59.93763,-9.54676 0,-3.84564 -26.83336,-10.61874 -59.93763,-10.61874 z"
     inkscape:connector-curvature="0"
     style="fill:#ffffff" />
  <metadata
     id="metadata7">
    <rdf:RDF>
      <cc:Work>
        <dc:format>image/svg+xml</dc:format>
        <dc:type
           rdf:resource="http://purl.org/dc/dcmitype/StillImage" />
        <cc:license
           rdf:resource="http://creativecommons.org/publicdomain/zero/1.0/" />
        <dc:publisher>
          <cc:Agent
             rdf:about="http://openclipart.org/">
            <dc:title>Openclipart</dc:title>
          </cc:Agent>
        </dc:publisher>
        <dc:title>British Crown by Rones</dc:title>
        <dc:date>2011-02-17T18:58:54</dc:date>
        <dc:description>British Crown symbol from «Keep Calm» poster</dc:description>
        <dc:source>http://openclipart.org/detail/120439/british-crown-by-rones-by-rones</dc:source>
        <dc:creator>
          <cc:Agent>
            <dc:title>rones</dc:title>
          </cc:Agent>
        </dc:creator>
        <dc:subject>
          <rdf:Bag>
            <rdf:li>Britain</rdf:li>
            <rdf:li>British</rdf:li>
            <rdf:li>Crown</rdf:li>
            <rdf:li>Queen</rdf:li>
            <rdf:li>clip art</rdf:li>
            <rdf:li>clipart</rdf:li>
            <rdf:li>monarchy</rdf:li>
            <rdf:li>symbol</rdf:li>
          </rdf:Bag>
        </dc:subject>
      </cc:Work>
      <cc:License
         rdf:about="http://creativecommons.org/publicdomain/zero/1.0/">
        <cc:permits
           rdf:resource="http://creativecommons.org/ns#Reproduction" />
        <cc:permits
           rdf:resource="http://creativecommons.org/ns#Distribution" />
        <cc:permits
           rdf:resource="http://creativecommons.org/ns#DerivativeWorks" />
      </cc:License>
    </rdf:RDF>
  </metadata>
</svg>
